inDegrees=no
num_controls=7
num_derivatives=13
num_iterations=179
num_multipliers=7
num_parameters=0
num_slacks=7
num_states=26
objective=0.479301
objective_accelerations=0.000000
objective_balance=0.003593
objective_effort=0.060624
objective_height=0.352265
objective_ligament=0.062819
solver_duration=2239.995917
status=Solve_Succeeded
success=true
DataType=double
version=3
OpenSimVersion=4.5
endheader
time	/jointset/ground_pelvis/pelvis_tilt/value	/jointset/ground_pelvis/pelvis_tx/value	/jointset/ground_pelvis/pelvis_ty/value	/jointset/hip_l/hip_flexion_l/value	/jointset/hip_l/hip_adduction_l/value	/jointset/hip_l/hip_rotation_l/value	/jointset/back/lumbar_extension/value	/jointset/patellofemoral_l/patellar_flexion_l/value	/jointset/knee_l/knee_flexion_l/value	/jointset/knee_l/knee_adduction_l/value	/jointset/knee_l/knee_rotation_l/value	/jointset/ankle_l/ankle_angle_l/value	/jointset/subtalar_l/subtalar_angle_l/value	/jointset/ground_pelvis/pelvis_tilt/speed	/jointset/ground_pelvis/pelvis_tx/speed	/jointset/ground_pelvis/pelvis_ty/speed	/jointset/hip_l/hip_flexion_l/speed	/jointset/hip_l/hip_adduction_l/speed	/jointset/hip_l/hip_rotation_l/speed	/jointset/back/lumbar_extension/speed	/jointset/patellofemoral_l/patellar_flexion_l/speed	/jointset/knee_l/knee_flexion_l/speed	/jointset/knee_l/knee_adduction_l/speed	/jointset/knee_l/knee_rotation_l/speed	/jointset/ankle_l/ankle_angle_l/speed	/jointset/subtalar_l/subtalar_angle_l/speed	/forceset/tau_hip_flexion_l	/forceset/tau_hip_adduction_l	/forceset/tau_hip_rotation_l	/forceset/tau_knee_flexion_l	/forceset/tau_ankle_angle_l	/forceset/tau_subtalar_angle_l	/forceset/tau_lumbar_extension	lambda_cid13_p0	lambda_cid13_p1	lambda_cid13_p2	lambda_cid13_p3	lambda_cid13_p4	lambda_cid13_p5	lambda_cid14_p0	/jointset/ground_pelvis/pelvis_tilt/accel	/jointset/ground_pelvis/pelvis_tx/accel	/jointset/ground_pelvis/pelvis_ty/accel	/jointset/hip_l/hip_flexion_l/accel	/jointset/hip_l/hip_adduction_l/accel	/jointset/hip_l/hip_rotation_l/accel	/jointset/back/lumbar_extension/accel	/jointset/patellofemoral_l/patellar_flexion_l/accel	/jointset/knee_l/knee_flexion_l/accel	/jointset/knee_l/knee_adduction_l/accel	/jointset/knee_l/knee_rotation_l/accel	/jointset/ankle_l/ankle_angle_l/accel	/jointset/subtalar_l/subtalar_angle_l/accel	gamma_cid13_p0	gamma_cid13_p1	gamma_cid13_p2	gamma_cid13_p3	gamma_cid13_p4	gamma_cid13_p5	gamma_cid14_p0
1.5	-0.2115636509220996	-0.08490200730814315	0.8187882874824279	0.9801318710989622	-0.3061170940911578	-0.1661051978412598	-0.9594635836160107	0.6995097849637159	0.6995097849637328	-0.08195880567490871	-0.1743589116541227	-0.01744023288566799	-0.01771378837914553	0.8184710900067138	0.04443607897718216	0.192645847333276	-1.267404590188203	0.02353332082660979	-0.1457262253295094	0.02619410559362243	-0.4285214109620135	-0.4285214109618976	-0.02476051280877496	-0.009284967483246745	0.001666970939883191	0.02643870461280957	-0.423664950265747	0.03695383758675102	-0.003697200694955542	-0.1077789633000968	0.106776528469265	0.07669266699096368	0.4457314884490126	-11.87066662160094	-31.5340871938106	4.921391630875186	-20.17897595288533	-752.2889906136372	-80.90154591830732	-18.02461562379069	2.313974630125793	0.8591716665555565	0.597029222048983	-4.650641259767457	-1.174059303210264	1.428131649984556	0.8100834538185391	-0.8471688147084655	-0.8471688147084557	-3.329289581982128	0.3074187061526127	0.9362615911745971	-0.9031106729241425	2.862476505156329e-07	-2.072781718182718e-07	-7.286088609424206e-07	-2.129283693845731e-07	-4.119720280746664e-08	-1.696631973196307e-08	1.197772227307407e-07
1.51	-0.2032499145400982	-0.08441233651981694	0.8207446910896967	0.9672197135583702	-0.3059313040402429	-0.1674876118998284	-0.9591707348779418	0.6951986288213261	0.6951986288213208	-0.08235172591425913	-0.1744281693802663	-0.01736188450675779	-0.01748032948184986	0.845692221846902	0.05374078129904393	0.1986576981614701	-1.315687449133335	0.01456163574256786	-0.1306748156862753	0.03134735247580395	-0.4320593979845458	-0.4320593979844075	-0.05150755912348271	-0.003962010002841441	0.01553275586898974	0.02171602109562192	-0.4202017164434187	0.03555760150856369	-0.003618942457251495	-0.1094073840881358	0.1154569732511068	0.07692502355008303	0.4447545140596574	-8.710757397689326	-32.17673000827038	5.010656726559572	-26.01401431212193	-749.169064172707	-81.87674968139274	-18.17189866571879	3.138568352126975	1.002482478924209	0.6066560037203489	-5.016206734680181	-0.6180870875302112	1.55590674046148	0.2137018733702076	0.1404603725744381	0.1404603725777062	-2.000111627564336	0.7353644456028765	1.841218941905532	-0.03727313076196652	9.202983019015628e-08	-4.421890037688019e-07	-4.837921739193534e-07	-2.124068876298735e-07	-1.150385604422565e-07	-1.811583664017801e-07	4.130501635784534e-09
1.52	-0.194621489661459	-0.08382234611548794	0.8227618918033507	0.9538049077237702	-0.3058071036354744	-0.1687170596381696	-0.9588572023574577	0.6909016076124309	0.6909016076124043	-0.08294265651102385	-0.1744260714963088	-0.01709898187891252	-0.01725018260765529	0.881408789333549	0.06450000217774633	0.2048052686103104	-1.367934248990237	0.01121539159736262	-0.1151329612842949	0.03033086207607534	-0.4256944242630773	-0.425694424262917	-0.06436258429216034	0.004986154542298978	0.03857782072316905	0.02577629999259803	-0.4167384826210867	0.03416136543037754	-0.003540684219541138	-0.1110358048761687	0.1241374180329524	0.07715738010920487	0.4437775396703043	-5.545235528832554	-32.82529238497739	5.106505546127266	-32.00044996538857	-746.0544113573167	-82.87482544632557	-18.31553606233631	4.013061759417518	1.150075377923653	0.6241731461782134	-5.443429442121258	-0.04897111544295574	1.526220601733867	-0.4238640025636306	1.13342333409167	1.133423334091588	-0.5508853527761853	1.032460119099644	2.772117576189077	0.8534818099085569	-2.158823403587538e-08	-5.49317930628794e-07	-1.968420534363323e-07	-1.818687129295806e-07	-2.334913669930376e-07	-3.369651889790648e-07	-5.547429222445407e-08
1.53	-0.1855995359265525	-0.08311768892421736	0.8248407956581532	0.939850815118876	-0.305694482817597	-0.169796563212593	-0.958577285150615	0.6867137214152738	0.6867137214152434	-0.08360128428331275	-0.1743280775540497	-0.01656419268751627	-0.01694323245898996	0.9238434370533817	0.07666250129153844	0.2109572149731997	-1.42330614427071	0.01162119368102784	-0.1012223689665091	0.02531395925274872	-0.4106137101713203	-0.4106137101712386	-0.066060172177386	0.01426265197347684	0.06948900206446294	0.03631210285060713	-0.4132494338985267	0.03177205351828048	-0.003527296565082058	-0.1140600703024776	0.1335559122737858	0.07711064891345508	0.4438603213514402	-2.24713718382126	-33.37132396508303	5.180826804355146	-37.6210487784301	-744.1398649485542	-83.81893246231868	-18.45172254103835	4.487870721615632	1.283979757300929	0.6078646480701495	-5.647375963158789	0.1321821965660106	1.255216236344403	-0.5913964285286628	1.885772309554206	1.885772309542491	0.2161932783063426	0.8228116763234854	3.416960634760968	1.258428819290558	-4.956905740624773e-08	-5.206785833300907e-07	1.348748400978894e-07	-1.194378019745952e-07	-3.993438380170589e-07	-4.838627109580343e-07	-5.55345383978059e-08
1.54	-0.1761273948257749	-0.08228447822597042	0.8269806508299298	0.9253303422827488	-0.3055684387136246	-0.1707506133259301	-0.9583576955732657	0.6827147177316011	0.6827147177315679	-0.08423781017750812	-0.1741478052132458	-0.01568702323837062	-0.01650996442263589	0.9714462625071895	0.09021070357302356	0.2169955320051418	-1.481210295237129	0.01390004881648365	-0.09004226906698473	0.01826533617696425	-0.3879179215661047	-0.3879179215660977	-0.05994220867452778	0.02144183425251913	0.1070538722722131	0.05103987753035476	-0.4097603851759666	0.02938274160618096	-0.003513908910609088	-0.1170843357287826	0.1429744065146216	0.07706391771770324	0.4439431030325761	1.06787125159351	-33.92426812940143	5.260762941431705	-43.48183525177489	-742.1491765219261	-84.77437052153529	-18.57834991062455	5.046697306212502	1.427216011462241	0.6014472799887591	-5.949880579310501	0.3256394949151221	0.9801221180815963	-0.8302080530553357	2.656438236783351	2.656438236784043	1.012224924840505	0.6129970886724908	4.102855349480275	1.691876174256205	-3.813219520456822e-08	-3.807546091600362e-07	3.753285145147041e-07	-6.578396641409699e-08	-4.946468606027309e-07	-5.415788922755946e-07	-3.18248114483026e-08
1.55	-0.1661610890178047	-0.08130956653343289	0.8291797665613718	0.9102235144015857	-0.3054129837163677	-0.1716163665581195	-0.9582111060884022	0.6789755196834176	0.6789755196834132	-0.08477595083719446	-0.1739160115665417	-0.01440599144174274	-0.01591273527921411	1.021935285623813	0.1049381199863873	0.2227544103957338	-1.540075747375109	0.01721115462649052	-0.08433309263311112	0.01145283013555227	-0.3591652643243282	-0.359165264324354	-0.04672700004386993	0.02375709223529481	0.1497643368633532	0.06866020776854163	-0.4051859337242956	0.02676362310010661	-0.003680193870486003	-0.1211330215897144	0.1509026683445193	0.07673752338779204	0.4437415875763817	3.797205908629275	-34.26180098712817	5.316173288887405	-47.65455664927718	-740.8231221172172	-85.66238633753495	-18.69414702939956	5.06806336478251	1.520477603343793	0.5520242449800072	-5.842956918987406	0.3367359849999686	0.1825609568152904	-0.5467314790338249	3.098133497896612	3.098133497891188	1.620078635524936	-0.1330810696430871	4.446958051392564	1.8351721477516	1.872069602577723e-08	-1.126113909860404e-07	5.106310886440774e-07	-2.224284815594214e-08	-5.086646491181353e-07	-4.965426593528413e-07	1.927205844709749e-08
1.56	-0.1556862812685872	-0.08018238604734798	0.8314342543019971	0.8945304161214538	-0.3052238396888204	-0.1724617789158158	-0.9581206335838208	0.6755465390136567	0.6755465390136813	-0.08515315744990151	-0.1736958395845539	-0.0126794917917096	-0.01513169069358015	1.073146650756245	0.1206644622825029	0.2280699338417697	-1.59846437503092	0.02063785487475952	-0.08597409416823612	0.007041940120155585	-0.3258744458816796	-0.3258744458817422	-0.0277553992793512	0.01911750130914214	0.1961474429529604	0.08780296597279554	-0.4006114822726267	0.02414450459402767	-0.003846478830362309	-0.125181707450642	0.158830930174419	0.07641112905787686	0.4435400721201858	6.549843789724316	-34.60825171239713	5.378530813863533	-52.1211750096646	-739.3686698190107	-86.53892930660552	-18.7993783164827	5.19116570937436	1.627001188012585	0.5127762910775392	-5.854515682876581	0.3487583825675108	-0.4899134757181451	-0.3498848478524049	3.564070476957756	3.564070476957625	2.163503351612606	-0.7779726931132189	4.837383649173645	1.996361767469556	5.164909259940728e-08	5.913938476125213e-08	4.985254835847112e-07	-1.677450741870431e-08	-5.870255244024779e-07	-4.151105578491398e-07	4.897756128539091e-08
